<?xml version="1.0" encoding="utf-8"?>
<!-- Generator: Adobe Illustrator 19.1.1, SVG Export Plug-In . SVG Version: 6.00 Build 0)  -->
<svg version="1.1" id="Layer_1" xmlns="http://www.w3.org/2000/svg" xmlns:xlink="http://www.w3.org/1999/xlink" x="0px" y="0px"
	 viewBox="-273 396.9 48 48" style="enable-background:new -273 396.9 48 48;" xml:space="preserve">
<style type="text/css">
	.st0{fill:#3B5998;}
</style>
<path class="st0" d="M-249,396.9c-13.3,0-24,10.7-24,24c0,13.3,10.7,24,24,24c13.3,0,24-10.7,24-24
	C-225,407.6-235.7,396.9-249,396.9z M-242.8,412.9h-2.2c-1.8,0-2.1,0.8-2.1,2.1v2.7h4.2l-0.6,4.3h-3.7v10.9h-4.4V422h-3.7v-4.3h3.7
	v-3.1c0-3.7,2.2-5.6,5.5-5.6c1.6,0,2.9,0.1,3.3,0.2C-242.8,409.2-242.8,412.9-242.8,412.9z"/>
</svg>
