<?xml version="1.0" encoding="UTF-8"?>
<!DOCTYPE svg PUBLIC "-//W3C//DTD SVG 1.1//EN" "http://www.w3.org/Graphics/SVG/1.1/DTD/svg11.dtd">
<!-- Creator: CorelDRAW X8 -->
<svg xmlns="http://www.w3.org/2000/svg" xml:space="preserve" width="1.64874in" height="1.6847in" version="1.1" style="shape-rendering:geometricPrecision; text-rendering:geometricPrecision; image-rendering:optimizeQuality; fill-rule:evenodd; clip-rule:evenodd"
viewBox="0 0 3441 3516"
 xmlns:xlink="http://www.w3.org/1999/xlink">
 <defs>
  <style type="text/css">
   <![CDATA[
    .fil0 {fill:#111111}
   ]]>
  </style>
 </defs>
 <g id="Layer_x0020_1">
  <metadata id="CorelCorpID_0Corel-Layer"/>
  <path class="fil0" d="M0 782c0,11 11,44 22,55 56,84 234,-44 268,-83 161,-117 451,-312 662,-312 151,0 245,117 245,256 0,256 -44,334 -117,568l-161 451c-151,0 -791,-11 -791,151 0,44 22,83 61,116 45,67 95,140 173,162 139,44 256,0 406,0l-194 534c-73,184 -279,630 -106,802 55,56 150,34 206,0 83,-44 150,-128 195,-206 94,-150 245,-601 300,-790l140 -407c278,-22 629,-95 890,-95 -33,84 -161,630 -161,752 0,184 11,373 128,501 95,117 184,184 373,184 345,0 613,-206 858,-406 22,-12 22,-23 44,-45 -44,-84 -95,-184 -106,-290 -11,12 -128,129 -234,184 -139,95 -194,128 -361,128 -374,0 -129,-952 -45,-1058 11,-11 33,-22 61,-22l312 -33c106,-12 267,-23 267,-140 0,-33 -11,-83 -33,-105 -33,-45 -95,-45 -139,-45 -128,0 -245,11 -373,11l128 -395c55,-184 128,-395 206,-568 44,-117 106,-301 11,-407 -61,-66 -212,-94 -323,23l-33 33c-95,106 -195,407 -245,546 -23,94 -257,740 -257,790l-868 34c11,-45 22,-84 33,-117 95,-334 184,-629 184,-986 0,-233 -150,-428 -373,-512 -384,-139 -880,95 -1125,407 -22,89 -128,239 -128,334z"/>
 </g>
</svg>
