<?xml version="1.0" encoding="utf-8"?>
<!-- Generator: Adobe Illustrator 19.1.1, SVG Export Plug-In . SVG Version: 6.00 Build 0)  -->
<svg version="1.1" id="Layer_1" xmlns="http://www.w3.org/2000/svg" xmlns:xlink="http://www.w3.org/1999/xlink" x="0px" y="0px"
	 viewBox="-142 384.7 309.9 72.2" style="enable-background:new -142 384.7 309.9 72.2;" xml:space="preserve">
<style type="text/css">
	.st0{fill:#111111;}
</style>
<g id="Layer_x0020_1">
	<path class="st0" d="M91,406.3c0,4,2.1,5.4,5.6,5.4c6.5,0,7.3-7.3,4.6-9.4c-2.7-1.9-7.7-1.5-9.6,1.7C91.4,404.4,91,405.4,91,406.3z
		 M12.8,425.6c0,10,1.9,35.2,19,28.5c5.2-2.1,7.9-8.1,9.2-13.3c1-4.2,1.2-11.2,1.2-15.8c2.5,0,8.1-2.3,10.6-3.5
		c10-6,12.7-19.4,3.7-27.5c-1.9-1.7-4.4-3.1-6.9-4c-7.1-2.3-15.2-1.5-21.3,2.1C17.4,398.8,12.8,413.3,12.8,425.6z M33.7,417.9
		c-1.1-0.4-2.9-1-4.2-1.9c-2.3-1.5-2.5-0.2-2.5,2.3c0,4,3.5,5.6,6.9,6.5c0,4.8,0.8,22.5-6.9,22.5c-2.5,0-4.2-4-4.6-5.8
		c-1.9-6.9-1.2-18.3,0-25.2c1-5,2.3-9.4,5.2-13.5c2.3-2.7,3.3-4.4,6.7-5.8c5.4-2.5,14.8-0.8,18.3,4.4c2.7,4.2,1.2,10.4-2.3,13.3
		c-4.4,3.3-7.3,2.9-8.1,3.3c0-2.5,1.1-5.6,1.7-8.1c0.2-1.5,1-4.4-0.4-5.2c-3.5-2.1-7.1,1.2-8.3,4.4C34.1,411,33.7,414.4,33.7,417.9z
		 M-135.1,402.1c0,0.2,0.2,0.8,0.4,1c1,1.5,4.2-0.8,4.8-1.5c2.9-2.1,8.1-5.6,11.9-5.6c2.7,0,4.4,2.1,4.4,4.6c0,4.6-0.8,6-2.1,10.2
		l-2.9,8.1c-2.7,0-14.2-0.2-14.2,2.7c0,0.8,0.4,1.5,1.1,2.1c0.8,1.2,1.7,2.5,3.1,2.9c2.5,0.8,4.6,0,7.3,0l-3.5,9.6
		c-1.3,3.3-5,11.3-1.9,14.4c1,1,2.7,0.6,3.7,0c1.5-0.8,2.7-2.3,3.5-3.7c1.7-2.7,4.4-10.8,5.4-14.2l2.5-7.3c5-0.4,11.3-1.7,16-1.7
		c-0.6,1.5-2.9,11.3-2.9,13.5c0,3.3,0.2,6.7,2.3,9c1.7,2.1,3.3,3.3,6.7,3.3c6.2,0,11-3.7,15.4-7.3c0.4-0.2,0.4-0.4,0.8-0.8
		c-0.8-1.5-1.7-3.3-1.9-5.2c-0.2,0.2-2.3,2.3-4.2,3.3c-2.5,1.7-3.5,2.3-6.5,2.3c-6.7,0-2.3-17.1-0.8-19c0.2-0.2,0.6-0.4,1.1-0.4
		l5.6-0.6c1.9-0.2,4.8-0.4,4.8-2.5c0-0.6-0.2-1.5-0.6-1.9c-0.6-0.8-1.7-0.8-2.5-0.8c-2.3,0-4.4,0.2-6.7,0.2l2.3-7.1
		c1-3.3,2.3-7.1,3.7-10.2c0.8-2.1,1.9-5.4,0.2-7.3c-1.1-1.2-3.8-1.7-5.8,0.4l-0.6,0.6c-1.7,1.9-3.5,7.3-4.4,9.8
		c-0.4,1.7-4.6,13.3-4.6,14.2l-15.6,0.6c0.2-0.8,0.4-1.5,0.6-2.1c1.7-6,3.3-11.3,3.3-17.7c0-4.2-2.7-7.7-6.7-9.2
		c-6.9-2.5-15.8,1.7-20.2,7.3C-133.2,397.7-135.1,400.4-135.1,402.1z M133.9,412.1c-1.7,0-3.5-0.2-5,0.2c-1.2,0.2-1.9,0.8-1.9,1.5
		c-0.4,3.1,6.9,3.5,8.8,3.5c-0.8,3.5-0.8,12.9,0,16.7c-2.9,1.5-11,10.2-11,1.9c0-5.6,2.1-12.5,2.1-15.8c0-3.8-2.5-5.8-6.2-4
		c-2.1,1-3.3,3.3-4.4,5.4c-1.2,2.5-2.5,5-3.5,7.7c-0.2,0.4-0.2,0.8-0.8,0.8c0-4,3.8-14.4-1.9-14.4c-3.1,0-4.2,2.7-4.6,5.4
		c-0.6,3.3-1,7.5-1.5,11c0,0.8,0,1.5-0.2,2.3c-0.2,1.2,0,1-0.8,1.9c-1.9,1.7-9.6,8.3-9.6,2.7c0-5.6,2.7-12.9,4.2-18.5
		c0.4-1.7,1.2-4.6-1.5-4.6c-2.9,0-5.2,0.6-6.2,3.3c-1.3,2.9-1.9,6.7-2.7,9.6c-0.2,0.8-2.1,1.5-3.1,1.9c-2.9,1-5,0.4-5-3.1
		c0-3.7,3.5-11.7-1.7-11.7c-2.5,0-3.8,0.8-5.2,2.5c-1,1.2-1.9,2.7-2.7,4.4c-0.2,0.6-1,2.9-1.7,3.1c0-2.7,0.2-5.4,0.2-8.3
		c0-1.5-0.6-1.9-2.1-1.9c-1.9,0-2.9,0.6-3.3,1.9c-1.2,2.9-2.5,10-3.1,13.3c-0.2,1.5-0.6,6-0.6,9.8c0,3.7,0.4,6.7,3.5,6.7
		c1.9,0,2.9-2.3,3.5-3.8c1.5-3.5,2.7-7.3,4-11l2.1-5.6h0.4c0,1.2,0.6,4.2,1.1,5.4c0.4,1.7,1,2.9,2.3,4s2.7,1.7,4.4,1.9
		c1.2,0.2,2.9-0.2,4-0.6c0.4-0.2,0.8-0.4,1.2-0.4c-0.2,2.3-0.6,5.2,0.4,7.5c2.1,4.8,9.4,2.3,13.1,0.6c1.5-0.8,3.1-1.9,4.6-2.7
		c0,4.6,3.7,6.5,6.5,4c0.8-0.8,2.3-3.5,2.9-5c0.6-1.2,6.2-13.1,6.9-13.1c0,1-0.4,3.1-0.6,4.4c-0.2,3.8-0.8,9,1,12.3
		c0.4,0.8,1.3,1.9,2.3,2.3c4.4,1.7,13.3-5.6,15.6-5.8c0,1,1.9,3.3,2.5,4c4,3.5,8.5,1.7,12.5-0.8c2.5-1.5,6.5-3.3,5-6.9
		c-0.8-2.3-6.5,1.2-8.5,2.1c-6,2.3-6.2-2.1-6.9-6.2c-0.2-1.2,0-9.4,0.8-10.2c1.1-1.2,2.3-2.9,3.3-4.4c3.3,0,6.9,0.2,10.4,0.2
		c1.7,0,3.1-0.2,3.8-1.2c0.4-1,0.4-3.5-0.6-4c-1.5-0.6-7.7,0-9.8-0.4l1.9-3.1c2.1-3.5,3.5-7.1,3.5-11.7c0-2.3-0.6-4.4-1.5-5.6
		c-1-1.5-2.5-2.7-4.6-2.7c-6.3,0-10.2,11.7-11.7,16.9c-0.4,1.2-0.6,2.5-1,3.7c-0.2,0.8,0,1.7-0.6,1.7
		C136,412.1,134.3,412.1,133.9,412.1z M144.5,412.5c-0.8-0.2-1,0-2.1,0c0-2.5,3.5-12.9,5-14.6c0.8-1,3.8-1.2,2.5,3.3
		C148.9,404.8,146.4,409,144.5,412.5z M-40.9,421.5c0-2.3,0.6-5.8,1.2-8.1c0.6-2.7,1-5.2,1.9-7.7c0.6-2.5,3.7-11.7,6.9-11.7
		c0.2,0.2,0.2,1,0.2,1.2c0,4.4-4,14.8-6,19C-37.8,415.6-40.1,420.8-40.9,421.5z M-23.6,421.3c0-4.8,3.3-19.2,6-23.5
		c0.6-1,1.9-3.7,3.3-3.7c1.2,0,0,5.2,0,5.4c-0.2,1.2-0.6,2.3-1.1,3.5c-1.7,5.6-4,10.4-6.7,15.6C-22.4,419.2-23.2,421.1-23.6,421.3z
		 M-23.8,393.3c0-1.9-0.2-3.5-1.1-4.8c-2.3-3.8-6.9-2.1-9.6,0c-1.5,1-1.9,1.7-2.9,2.9c-7.7,9.4-13.3,28.9-11.7,41.2
		c0,0.6,0.2,1.1,0.2,1.7l-2.5,1.7c-1.1,0.6-1.7,1-2.7,1.5c-2.3,1.2-6.5,2.9-9.2,1.2c-0.6-0.4-1.2-1.2-1.5-2.1c0.8-0.2,1.7-0.6,2.5-1
		c4.8-2.1,8.3-5,10.4-10c3.3-8.5-9-16.1-16.9-5.6c-2.1,2.7-3.5,6.7-4.2,10c-1,6,0.4,11.7,5.4,15c5.2,3.3,12.7,0.6,17.5-2.3l3.1-2.1
		c0.4,1.7,2.7,5.4,4.8,5.6c2.9,0.6,8.1-1.7,10.8-2.9c0.4-0.2,1.9-1.1,2.3-1.2c0.2,0.8,1.5,2.3,2.1,2.9c2.7,2.5,6,1.1,9,0l5-2.3
		c6.7,9.4,25,0.2,19.4-19.2c-0.2-0.6-0.6-1.2-0.6-1.9c0.6,0.2,2.9,1.9,3.5,2.3c0.4,0.4,0.6,0.6,1.2,0.8c0-2.1-0.2-3.7,0.2-5.6
		c-4-2.7-6.9-4-12.1-4c-3.5,0-7.1,1.5-9.6,3.7c-2.9,2.9-5.2,7.9-5.2,12.3c0,1.9,0.4,3.5,0.4,5.2c-1.2,0.8-3.1,1.9-4.6,2.5
		c-1.2,0.4-1.9,0.4-2.3-0.6c-0.8-1.5-0.8-2.3-0.8-4c0-2.7,4-9.8,5.6-12.3l2.7-4.6c1-1.9,2.7-5.2,3.5-7.1c2.3-4.8,4.8-11.3,4.8-16.9
		c0-2.5-0.6-5.2-2.3-6.5c-4-2.7-9.2,2.5-11.5,5.4c-1.7,2.1-3.3,5.4-3.5,5.6C-24,396.7-23.8,394.8-23.8,393.3z M-32,429.2
		c0,1.7,0,5.6,0.6,6.7c-0.2,0.2-0.4,0.2-0.8,0.4c-1.9,1-4.6,3.1-6.7,3.1c-0.4,0-1.1-1.2-1.1-1.7c-1.9-4.6,2.3-11,4.6-14.6
		c1.9-3.3,4.2-6.9,5.6-10l0.2-0.4c0.2-0.2,0,0,0.2-0.2C-30.7,417.5-32,423.5-32,429.2z M-65.7,431.5c0-2.9,0.4-4.4,1.7-6.7
		c3.3-6.2,11.3-2.5,4,4.4C-61.1,430-63.6,431.5-65.7,431.5z M-4.1,440.8c-5.8,0-4.8-8.3-4.2-11.9c1.2-6.2,7.7-10.6,9.6-3.1
		c0.2,1.1,0.2,1.5,0.2,2.7C2,432.1,0.1,440.8-4.1,440.8z"/>
</g>
</svg>
