<?xml version="1.0" standalone="no"?>
<!DOCTYPE svg PUBLIC "-//W3C//DTD SVG 20010904//EN"
 "http://www.w3.org/TR/2001/REC-SVG-20010904/DTD/svg10.dtd">
<svg version="1.0" xmlns="http://www.w3.org/2000/svg"
 width="608.000000pt" height="608.000000pt" viewBox="0 0 608.000000 608.000000"
 preserveAspectRatio="xMidYMid meet">
<metadata>
Created by potrace 1.11, written by Peter Selinger 2001-2013
</metadata>
<g transform="translate(0.000000,608.000000) scale(0.100000,-0.100000)"
fill="#000000" stroke="none">
<path d="M1670 6074 c-79 -12 -168 -27 -182 -30 -40 -9 -55 -12 -93 -23 -22
-6 -43 -11 -47 -11 -18 -2 -158 -53 -203 -74 -27 -13 -60 -26 -71 -30 -29 -9
-210 -108 -282 -153 -220 -140 -488 -395 -517 -493 -8 -25 -58 -142 -74 -170
-4 -8 -13 -24 -19 -35 -21 -37 -69 -150 -81 -190 -7 -22 -15 -47 -18 -55 -3
-8 -8 -35 -10 -59 -6 -54 26 -122 68 -149 72 -45 242 14 389 137 30 25 59 50
65 54 67 54 338 229 430 278 22 12 42 24 45 28 7 9 243 123 260 125 3 1 10 4
15 7 19 12 170 57 230 69 33 7 98 13 145 13 207 0 367 -134 409 -343 11 -53 8
-334 -4 -390 -3 -14 -7 -43 -10 -65 -16 -130 -106 -426 -250 -825 -37 -102
-68 -192 -70 -200 -4 -14 -105 -296 -127 -352 l-10 -28 -202 -1 c-235 -1 -354
-5 -451 -13 -38 -4 -99 -9 -135 -12 -36 -3 -78 -7 -95 -10 -16 -3 -41 -7 -55
-9 -205 -30 -364 -90 -407 -153 -40 -61 -19 -153 52 -231 18 -20 54 -65 80
-101 116 -160 190 -208 365 -237 66 -10 229 -5 370 12 105 12 210 15 210 5 0
-12 -32 -109 -51 -155 -7 -16 -13 -32 -13 -35 -1 -3 -7 -18 -13 -35 -6 -16
-35 -95 -63 -175 -28 -80 -55 -154 -60 -165 -5 -11 -23 -60 -40 -110 -18 -49
-39 -104 -46 -122 -8 -17 -14 -35 -14 -39 0 -7 -47 -129 -85 -219 -6 -16 -26
-66 -43 -110 -42 -110 -45 -119 -47 -125 -1 -3 -5 -12 -8 -20 -9 -20 -68 -201
-72 -220 -2 -8 -4 -15 -5 -15 -1 0 -3 -7 -5 -15 -2 -8 -10 -44 -19 -80 -29
-125 -38 -190 -40 -301 -4 -154 33 -274 109 -352 44 -46 71 -57 148 -64 112
-9 240 52 367 177 139 137 245 321 370 640 29 74 58 149 65 165 7 17 25 66 40
110 15 44 31 89 36 100 12 29 108 321 169 515 28 91 54 172 58 180 3 8 6 17 7
20 1 3 4 12 8 20 8 20 98 282 101 295 2 6 6 19 10 30 25 65 34 91 34 95 0 3 5
17 10 31 6 14 15 43 22 65 11 37 15 40 49 42 20 2 56 5 81 8 25 3 63 7 85 9
22 2 58 6 80 9 22 4 60 8 85 11 25 3 61 8 80 11 19 3 46 7 60 9 22 2 51 6 160
20 14 2 39 6 55 9 28 4 101 14 155 20 14 2 54 7 90 11 36 4 72 9 80 10 8 2 51
6 95 10 237 23 395 27 395 11 0 -7 -3 -16 -7 -20 -4 -3 -8 -12 -10 -19 -8 -36
-12 -52 -13 -52 -1 0 -3 -7 -5 -15 -2 -8 -24 -98 -50 -200 -26 -102 -48 -192
-50 -200 -2 -8 -19 -91 -39 -183 -20 -93 -39 -185 -42 -205 -3 -20 -7 -39 -9
-42 -2 -3 -6 -24 -9 -46 -4 -22 -8 -51 -11 -64 -3 -13 -7 -42 -11 -65 -3 -22
-9 -58 -13 -80 -12 -67 -2 -417 14 -475 2 -8 7 -35 10 -60 13 -97 74 -278 98
-288 4 -2 7 -9 7 -16 0 -44 208 -269 309 -335 66 -42 192 -87 273 -97 154 -20
375 -2 538 43 154 42 426 162 530 233 8 6 51 34 95 62 44 29 86 58 93 65 6 6
21 15 32 18 11 3 20 10 20 15 0 5 17 19 38 31 20 13 42 28 47 34 6 7 57 47
114 91 104 79 204 171 199 183 -89 181 -112 233 -134 298 -28 84 -33 100 -40
153 -3 18 -6 35 -8 37 -2 2 -30 -21 -62 -51 -104 -96 -128 -115 -209 -172
-128 -89 -262 -174 -274 -174 -6 0 -11 -4 -11 -8 0 -19 -170 -92 -251 -107
-105 -20 -262 -22 -318 -3 -38 13 -131 77 -131 90 0 4 -8 17 -17 27 -9 11 -27
46 -41 77 -23 56 -26 67 -38 128 -2 16 -7 32 -9 36 -3 4 -7 50 -10 101 -2 52
-5 96 -6 99 -2 7 -2 -2 6 145 4 72 8 140 8 153 1 12 3 22 7 22 3 0 5 14 4 31
0 18 3 53 8 78 5 25 11 62 14 81 8 54 12 73 18 100 3 14 8 36 10 50 33 192
140 516 193 587 27 35 47 41 204 57 36 4 86 10 110 12 24 3 51 5 59 5 8 1 44
5 80 10 36 4 101 11 145 14 44 3 87 8 95 10 8 3 35 7 60 9 246 25 368 112 354
253 -9 97 -56 183 -113 204 -14 6 -26 9 -26 8 0 -1 -10 3 -23 10 -16 8 -72 12
-180 11 -160 -2 -327 -7 -327 -10 0 -1 -61 -3 -136 -4 l-137 -3 14 34 c8 18
14 35 14 38 0 3 0 6 1 8 0 1 2 11 4 22 2 10 8 28 14 40 8 16 136 407 148 450
1 6 21 69 43 140 23 72 43 138 45 147 2 9 9 26 15 37 6 12 9 21 6 21 -2 0 6
27 19 60 13 33 21 60 18 60 -3 0 -1 6 4 13 5 6 20 46 34 87 13 41 27 77 32 78
4 2 7 11 7 20 1 10 35 100 76 202 90 220 160 418 169 480 10 64 10 64 16 75 6
10 3 161 -4 205 -6 41 -55 131 -89 163 -54 52 -155 87 -253 89 -50 1 -147 -31
-205 -67 -45 -28 -190 -175 -190 -192 0 -7 -4 -13 -9 -13 -7 0 -120 -220 -165
-321 -45 -103 -221 -584 -230 -630 -3 -13 -71 -217 -151 -454 -167 -491 -239
-709 -256 -777 -6 -27 -14 -49 -18 -49 -19 -4 -94 -8 -246 -14 -164 -6 -256
-10 -505 -20 -211 -8 -353 -14 -530 -20 -96 -3 -183 -9 -194 -12 -22 -6 -21 3
36 202 22 77 41 147 43 155 2 8 4 16 5 18 2 1 3 5 4 10 2 4 8 27 15 52 7 25
14 50 15 55 2 6 8 30 15 55 7 25 15 52 17 60 2 8 22 85 44 170 48 184 98 425
115 550 3 25 8 52 10 60 2 8 7 44 10 80 4 36 8 77 11 92 7 46 19 375 14 398 0
3 -3 30 -6 60 -7 86 -44 208 -87 290 -21 41 -44 85 -50 97 -7 13 -15 23 -19
23 -5 0 -8 4 -8 10 0 28 -160 184 -250 243 -65 42 -206 115 -235 121 -5 2 -30
8 -55 15 -118 34 -231 49 -364 48 -66 0 -128 -2 -136 -3z"/>
</g>
</svg>
